<svg width="60" height="60" viewBox="0 0 60 60" fill="none" xmlns="http://www.w3.org/2000/svg">
<g opacity="0.6">
<circle cx="30" cy="30" r="30" fill="#333333"/>
<circle cx="30" cy="30" r="28.5" stroke="white" stroke-opacity="0.5" stroke-width="3"/>
</g>
<path d="M29.8887 4.44554L29.8887 1L29.7143 1L29.7143 4.44554L29.8887 4.44554Z" fill="white"/>
<path d="M55.5545 29.8868L59 29.8868L59 29.7124L55.5545 29.7124L55.5545 29.8868Z" fill="white"/>
<path d="M4.44554 29.7131H1V29.8875H4.44554V29.7131Z" fill="white"/>
<path d="M29.8887 58.4256L29.8887 54.9801L29.7143 54.9801L29.7143 58.4256L29.8887 58.4256Z" fill="white"/>
<g opacity="0.5">
<path d="M1.73604 27.6217L3.71289 27.7731L3.72588 27.6035L1.74904 27.4521L1.73604 27.6217Z" fill="white"/>
<path d="M1.96383 25.5433L3.92383 25.8412L3.94936 25.6733L1.98936 25.3754L1.96383 25.5433Z" fill="white"/>
<path d="M5.38837 15.7196L7.10352 16.7141L7.18883 16.5669L5.47368 15.5724L5.38837 15.7196Z" fill="white"/>
<path d="M6.49443 13.944L8.13086 15.0634L8.22675 14.9232L6.59032 13.8038L6.49443 13.944Z" fill="white"/>
<path d="M7.73673 12.2654L9.28516 13.503L9.39133 13.3701L7.84291 12.1326L7.73673 12.2654Z" fill="white"/>
<path d="M10.5504 12.0209L10.666 11.8964L9.21337 10.5471L9.09777 10.6715L10.5504 12.0209Z" fill="white"/>
<path d="M11.9185 10.6404L12.043 10.5248L10.6936 9.07219L10.5692 9.18779L11.9185 10.6404Z" fill="white"/>
<path d="M13.5229 9.26316L12.2852 7.71436L12.1523 7.82053L13.39 9.36933L13.5229 9.26316Z" fill="white"/>
<path d="M15.0862 8.10976L13.9668 6.47333L13.8266 6.56922L14.946 8.20566L15.0862 8.10976Z" fill="white"/>
<path d="M16.7408 7.07774L15.7461 5.36279L15.5992 5.448L16.5938 7.16295L16.7408 7.07774Z" fill="white"/>
<path d="M18.4574 6.16429L17.5938 4.37976L17.4407 4.45385L18.3043 6.23838L18.4574 6.16429Z" fill="white"/>
<path d="M20.2434 5.39942L19.5156 3.55542L19.3574 3.61785L20.0851 5.46185L20.2434 5.39942Z" fill="white"/>
<path d="M22.0776 4.75292L21.4902 2.85956L21.328 2.90988L21.9154 4.80324L22.0776 4.75292Z" fill="white"/>
<path d="M23.9573 4.25843L23.5137 2.32642L23.3481 2.36443L23.7918 4.29644L23.9573 4.25843Z" fill="white"/>
<path d="M25.8642 3.89777L25.5664 1.93781L25.3985 1.96332L25.6962 3.92328L25.8642 3.89777Z" fill="white"/>
<path d="M27.798 3.68974L27.6465 1.71289L27.4769 1.72588L27.6284 3.70273L27.798 3.68974Z" fill="white"/>
<path d="M31.6703 3.69001L31.8398 3.703L31.9913 1.72616L31.8217 1.71316L31.6703 3.69001Z" fill="white"/>
<path d="M33.6075 3.89243L33.7754 3.91791L34.0728 1.95772L33.9049 1.93224L33.6075 3.89243Z" fill="white"/>
<path d="M35.518 4.25752L35.6836 4.29541L36.1259 2.36278L35.9603 2.32488L35.518 4.25752Z" fill="white"/>
<path d="M37.3922 4.75115L37.5547 4.80151L38.1417 2.90774L37.9793 2.85738L37.3922 4.75115Z" fill="white"/>
<path d="M39.2285 5.40069L39.3867 5.4632L40.1153 3.61938L39.9572 3.55688L39.2285 5.40069Z" fill="white"/>
<path d="M41.0169 6.16822L41.1699 6.24237L42.0343 4.45823L41.8813 4.38408L41.0169 6.16822Z" fill="white"/>
<path d="M43.8777 5.44698L43.7305 5.36176L42.737 7.07749L42.8842 7.16272L43.8777 5.44698Z" fill="white"/>
<path d="M45.6441 6.56419L45.5039 6.46826L44.3841 8.1043L44.5243 8.20023L45.6441 6.56419Z" fill="white"/>
<path d="M47.3184 7.81558L47.1855 7.70935L45.9472 9.25756L46.08 9.36379L47.3184 7.81558Z" fill="white"/>
<path d="M48.9018 9.18545L48.7773 9.06989L47.4284 10.5227L47.5528 10.6383L48.9018 9.18545Z" fill="white"/>
<path d="M50.2556 10.5495L48.8027 11.8984L48.9183 12.0229L50.3711 10.6739L50.2556 10.5495Z" fill="white"/>
<path d="M50.1836 13.4987L51.7324 12.2609L51.6262 12.1281L50.0774 13.3658L50.1836 13.4987Z" fill="white"/>
<path d="M51.3364 15.061L52.9727 13.9418L52.8768 13.8016L51.2405 14.9208L51.3364 15.061Z" fill="white"/>
<path d="M52.371 16.7167L54.0859 15.722L54.0007 15.5751L52.2858 16.5697L52.371 16.7167Z" fill="white"/>
<path d="M53.2838 18.4312L55.0684 17.5676L54.9943 17.4145L53.2097 18.2781L53.2838 18.4312Z" fill="white"/>
<path d="M54.0466 20.2201L55.8906 19.4924L55.8282 19.3342L53.9842 20.0619L54.0466 20.2201Z" fill="white"/>
<path d="M54.6924 22.0539L56.5859 21.4664L56.5356 21.3042L54.642 21.8917L54.6924 22.0539Z" fill="white"/>
<path d="M55.1891 23.9343L57.1211 23.4907L57.0831 23.3251L55.1511 23.7688L55.1891 23.9343Z" fill="white"/>
<path d="M55.5537 25.8461L57.5137 25.5481L57.4881 25.3802L55.5282 25.6782L55.5537 25.8461Z" fill="white"/>
<path d="M55.7517 27.776L57.7285 27.6246L57.7155 27.455L55.7387 27.6065L55.7517 27.776Z" fill="white"/>
<path d="M57.7347 31.8024L55.7578 31.6509L55.7448 31.8205L57.7217 31.972L57.7347 31.8024Z" fill="white"/>
<path d="M57.5108 33.8726L55.5508 33.5748L55.5253 33.7427L57.4853 34.0405L57.5108 33.8726Z" fill="white"/>
<path d="M57.1139 35.9353L55.1816 35.4916L55.1436 35.6572L57.0759 36.1009L57.1139 35.9353Z" fill="white"/>
<path d="M56.583 37.9596L54.6895 37.3723L54.6391 37.5348L56.5327 38.122L56.583 37.9596Z" fill="white"/>
<path d="M55.893 39.9293L54.0488 39.2017L53.9864 39.3599L55.8306 40.0875L55.893 39.9293Z" fill="white"/>
<path d="M55.0656 41.8547L53.2812 40.991L53.2071 41.1441L54.9915 42.0078L55.0656 41.8547Z" fill="white"/>
<path d="M54.0843 43.7015L52.3691 42.707L52.2838 42.8542L53.999 43.8486L54.0843 43.7015Z" fill="white"/>
<path d="M52.9702 45.4783L51.334 44.3588L51.2381 44.4989L52.8743 45.6185L52.9702 45.4783Z" fill="white"/>
<path d="M51.7344 47.1619L50.1855 45.9241L50.0794 46.057L51.6282 47.2947L51.7344 47.1619Z" fill="white"/>
<path d="M48.8069 47.521L50.2598 48.8702L50.3753 48.7457L48.9225 47.3966L48.8069 47.521Z" fill="white"/>
<path d="M48.8997 50.2306L47.5508 48.7778L47.4263 48.8933L48.7753 50.3462L48.8997 50.2306Z" fill="white"/>
<path d="M47.3178 51.6038L46.0801 50.055L45.9472 50.1612L47.1849 51.71L47.3178 51.6038Z" fill="white"/>
<path d="M45.6428 52.8592L44.5234 51.2228L44.3832 51.3187L45.5026 52.9551L45.6428 52.8592Z" fill="white"/>
<path d="M43.8736 53.9781L42.8789 52.263L42.732 52.3482L43.7266 54.0634L43.8736 53.9781Z" fill="white"/>
<path d="M42.0318 54.9663L41.168 53.1818L41.0151 53.2558L41.8789 55.0403L42.0318 54.9663Z" fill="white"/>
<path d="M40.1184 55.8092L39.3906 53.965L39.2324 54.0274L39.9602 55.8716L40.1184 55.8092Z" fill="white"/>
<path d="M38.1499 56.5162L37.5625 54.6226L37.4001 54.673L37.9875 56.5666L38.1499 56.5162Z" fill="white"/>
<path d="M36.1312 57.0557L35.6875 55.1237L35.522 55.1617L35.9656 57.0937L36.1312 57.0557Z" fill="white"/>
<path d="M34.0732 57.4542L33.7754 55.4942L33.6075 55.5197L33.9053 57.4797L34.0732 57.4542Z" fill="white"/>
<path d="M31.9933 57.6999L31.8418 55.7231L31.6722 55.7361L31.8237 57.7129L31.9933 57.6999Z" fill="white"/>
<path d="M27.8043 55.7321L27.6348 55.7191L27.4833 57.696L27.6529 57.709L27.8043 55.7321Z" fill="white"/>
<path d="M25.8632 55.5246L25.6953 55.4992L25.3985 57.4594L25.5664 57.4848L25.8632 55.5246Z" fill="white"/>
<path d="M23.9529 55.1586L23.7871 55.1207L23.3452 57.0533L23.511 57.0912L23.9529 55.1586Z" fill="white"/>
<path d="M22.0726 54.671L21.9102 54.6206L21.3227 56.5142L21.4852 56.5646L22.0726 54.671Z" fill="white"/>
<path d="M20.2441 54.0214L20.0859 53.9589L19.3573 55.8027L19.5155 55.8652L20.2441 54.0214Z" fill="white"/>
<path d="M18.4558 53.2589L18.3027 53.1848L17.4379 54.9689L17.591 55.0431L18.4558 53.2589Z" fill="white"/>
<path d="M15.7438 54.0595L16.7383 52.3444L16.5911 52.259L15.5967 53.9742L15.7438 54.0595Z" fill="white"/>
<path d="M13.8247 52.8539L13.9648 52.9498L15.0843 51.3138L14.9441 51.2179L13.8247 52.8539Z" fill="white"/>
<path d="M12.1563 51.6015L12.2891 51.7078L13.5278 50.1598L13.395 50.0535L12.1563 51.6015Z" fill="white"/>
<path d="M10.5689 50.2356L10.6934 50.3512L12.0427 48.8987L11.9183 48.7832L10.5689 50.2356Z" fill="white"/>
<path d="M9.21708 48.8736L10.6699 47.5247L10.5544 47.4002L9.10151 48.7492L9.21708 48.8736Z" fill="white"/>
<path d="M9.28708 45.9245L7.73828 47.1622L7.84446 47.2951L9.39326 46.0574L9.28708 45.9245Z" fill="white"/>
<path d="M8.13429 44.3601L6.49805 45.4794L6.59394 45.6196L8.23019 44.5003L8.13429 44.3601Z" fill="white"/>
<path d="M7.10772 42.7085L5.39258 43.7031L5.47779 43.8501L7.19293 42.8554L7.10772 42.7085Z" fill="white"/>
<path d="M6.18883 40.9889L4.4043 41.8525L4.47838 42.0056L6.26292 41.142L6.18883 40.9889Z" fill="white"/>
<path d="M5.42624 39.2039L3.58203 39.9317L3.64447 40.0899L5.48868 39.3621L5.42624 39.2039Z" fill="white"/>
<path d="M4.77812 37.3695L2.88477 37.9567L2.93514 38.1191L4.8285 37.5319L4.77812 37.3695Z" fill="white"/>
<path d="M4.28553 35.4877L2.35352 35.9314L2.39153 36.0969L4.32354 35.6533L4.28553 35.4877Z" fill="white"/>
<path d="M3.91507 33.5803L1.95508 33.8781L1.98059 34.046L3.94058 33.7482L3.91507 33.5803Z" fill="white"/>
<path d="M3.71513 31.6481L1.73828 31.7996L1.75128 31.9691L3.72812 31.8177L3.71513 31.6481Z" fill="white"/>
</g>
<path d="M46 8.58886C41.254 4.90179 35.4207 2.93413 29.4363 3.00168C23.4518 3.06924 17.6634 5.1681 13 8.9614L29.7343 30L46 8.58886Z" fill="url(#paint0_radial_671_1953)" fill-opacity="0.6"/>
<circle cx="30" cy="14" r="6" fill="white" fill-opacity="0.1"/>
<circle cx="30" cy="14" r="5.5" stroke="white" stroke-opacity="0.2"/>
<path d="M32.1975 15.1635C31.8809 15.2753 31.5875 14.9246 31.5202 14.3713L31.5105 14.3746C31.528 14.9434 31.3028 15.4749 30.9869 15.5865C30.6674 15.6993 30.3716 15.3413 30.3079 14.7793L30.0008 14.8826L29.6937 14.7793C29.6299 15.3412 29.3342 15.6993 29.0146 15.5865C28.6988 15.4749 28.4735 14.9433 28.491 14.3745L28.4813 14.3713C28.414 14.9245 28.1207 15.2753 27.8041 15.1634C27.4911 15.0528 27.267 14.5299 27.2799 13.967L27.1387 13.9194V16.0041C27.1387 16.0252 27.1521 16.044 27.1722 16.0507L29.9851 16.9974C29.9902 16.9991 29.9955 17 30.0008 17C30.0061 17 30.0114 16.9991 30.0164 16.9974L32.8293 16.0507C32.8494 16.044 32.8628 16.0252 32.8628 16.0041V13.9195L32.7216 13.967C32.7346 14.53 32.5105 15.0529 32.1975 15.1635Z" fill="#F3F5EC"/>
<path d="M27.8165 14.6105C28.0176 14.6816 28.2091 14.5626 28.3373 14.3229L27.3711 13.9977C27.458 14.3043 27.6192 14.5408 27.8165 14.6105Z" fill="#F3F5EC"/>
<path d="M29.0265 15.0335C29.2313 15.1059 29.4261 14.9811 29.5542 14.7326L28.5762 14.4034C28.6619 14.7184 28.8255 14.9625 29.0265 15.0335Z" fill="#F3F5EC"/>
<path d="M32.1848 14.6105C32.3821 14.5408 32.5434 14.3043 32.6303 13.9977L31.6641 14.3229C31.7922 14.5626 31.9837 14.6815 32.1848 14.6105Z" fill="#F3F5EC"/>
<path d="M30.975 15.0335C31.176 14.9625 31.3395 14.7184 31.4253 14.4034L30.4473 14.7326C30.5755 14.9811 30.7702 15.1059 30.975 15.0335Z" fill="#F3F5EC"/>
<path d="M30.0005 14.1607L32.8625 13.1975V12.0836C32.8634 12.0799 32.8641 12.0761 32.8641 12.0722C32.8644 12.0514 32.8514 12.0326 32.8317 12.0254L30.0172 11.003C30.0064 10.999 29.9945 10.999 29.9837 11.003L27.1691 12.0254C27.1495 12.0326 27.1365 12.0514 27.1367 12.0722C27.1368 12.0761 27.1374 12.0799 27.1383 12.0836V13.1975L30.0005 14.1607ZM30.0005 11.3771L31.8816 12.0605L30.0005 12.6932L28.1193 12.0605L30.0005 11.3771Z" fill="#F3F5EC"/>
<path opacity="0.5" d="M28.359 45.939C28.401 45.939 28.436 45.9413 28.464 45.946C28.492 45.9483 28.5165 45.9553 28.5375 45.967C28.5608 45.9763 28.583 45.9915 28.604 46.0125C28.625 46.0312 28.6483 46.0568 28.674 46.0895L31.3305 49.474C31.3212 49.3923 31.3142 49.313 31.3095 49.236C31.3072 49.1567 31.306 49.0832 31.306 49.0155V45.939H32.1355V51H31.649C31.5743 51 31.5125 50.9883 31.4635 50.965C31.4145 50.9417 31.3667 50.8997 31.32 50.839L28.674 47.4685C28.681 47.5432 28.6857 47.6178 28.688 47.6925C28.6927 47.7648 28.695 47.8313 28.695 47.892V51H27.8655V45.939H28.359Z" fill="#BDBDBD"/>
<defs>
<radialGradient id="paint0_radial_671_1953" cx="0" cy="0" r="1" gradientUnits="userSpaceOnUse" gradientTransform="translate(29.7346 30) rotate(90) scale(27 26.6994)">
<stop stop-color="white"/>
<stop offset="1" stop-color="white" stop-opacity="0"/>
</radialGradient>
</defs>
</svg>
